<svg width="14" height="14" viewBox="0 0 14 14" fill="none" xmlns="http://www.w3.org/2000/svg">
<path d="M8.16667 5.25C8.00139 5.25 7.86294 5.194 7.75133 5.082C7.63972 4.97 7.58372 4.83156 7.58333 4.66667V2.33333C7.58333 2.16806 7.63933 2.02961 7.75133 1.918C7.86333 1.80639 8.00178 1.75039 8.16667 1.75H11.6667C11.8319 1.75 11.9706 1.806 12.0826 1.918C12.1946 2.03 12.2504 2.16844 12.25 2.33333V4.66667C12.25 4.83194 12.194 4.97058 12.082 5.08258C11.97 5.19458 11.8316 5.25039 11.6667 5.25H8.16667ZM2.33333 7.58333C2.16806 7.58333 2.02961 7.52733 1.918 7.41533C1.80639 7.30333 1.75039 7.16489 1.75 7V2.33333C1.75 2.16806 1.806 2.02961 1.918 1.918C2.03 1.80639 2.16844 1.75039 2.33333 1.75H5.83333C5.99861 1.75 6.13725 1.806 6.24925 1.918C6.36125 2.03 6.41706 2.16844 6.41667 2.33333V7C6.41667 7.16528 6.36067 7.30392 6.24867 7.41592C6.13667 7.52792 5.99822 7.58372 5.83333 7.58333H2.33333ZM8.16667 12.25C8.00139 12.25 7.86294 12.194 7.75133 12.082C7.63972 11.97 7.58372 11.8316 7.58333 11.6667V7C7.58333 6.83472 7.63933 6.69628 7.75133 6.58467C7.86333 6.47306 8.00178 6.41706 8.16667 6.41667H11.6667C11.8319 6.41667 11.9706 6.47267 12.0826 6.58467C12.1946 6.69667 12.2504 6.83511 12.25 7V11.6667C12.25 11.8319 12.194 11.9706 12.082 12.0826C11.97 12.1946 11.8316 12.2504 11.6667 12.25H8.16667ZM2.33333 12.25C2.16806 12.25 2.02961 12.194 1.918 12.082C1.80639 11.97 1.75039 11.8316 1.75 11.6667V9.33333C1.75 9.16806 1.806 9.02961 1.918 8.918C2.03 8.80639 2.16844 8.75039 2.33333 8.75H5.83333C5.99861 8.75 6.13725 8.806 6.24925 8.918C6.36125 9.03 6.41706 9.16844 6.41667 9.33333V11.6667C6.41667 11.8319 6.36067 11.9706 6.24867 12.0826C6.13667 12.1946 5.99822 12.2504 5.83333 12.25H2.33333Z" fill="black"/>
</svg>
