<svg width="14" height="14" viewBox="0 0 14 14" fill="none" xmlns="http://www.w3.org/2000/svg">
<path fill-rule="evenodd" clip-rule="evenodd" d="M6.40204 1.75111C6.43619 1.90195 6.40904 2.06017 6.32656 2.191C6.24408 2.32183 6.11303 2.41455 5.9622 2.44878C5.84774 2.47482 5.7343 2.50518 5.62212 2.53978C5.54893 2.56237 5.472 2.57033 5.39572 2.5632C5.31945 2.55607 5.24533 2.53398 5.1776 2.49821C5.10986 2.46243 5.04983 2.41366 5.00094 2.35468C4.95206 2.29571 4.91526 2.22768 4.89266 2.15448C4.87006 2.08129 4.8621 2.00436 4.86924 1.92809C4.87637 1.85182 4.89846 1.7777 4.93423 1.70996C4.97001 1.64222 5.01878 1.5822 5.07776 1.53331C5.13673 1.48442 5.20476 1.44762 5.27796 1.42503C5.41795 1.38147 5.5599 1.34355 5.70379 1.31128C5.77852 1.29428 5.85586 1.29218 5.9314 1.30509C6.00695 1.318 6.0792 1.34567 6.14405 1.38651C6.20889 1.42736 6.26505 1.48058 6.30932 1.54314C6.35359 1.6057 6.38509 1.67637 6.40204 1.75111ZM7.59787 1.75111C7.6321 1.60029 7.72482 1.46923 7.85565 1.38676C7.98647 1.30428 8.1447 1.27713 8.29554 1.31128C10.8937 1.90044 12.8339 4.22328 12.8339 6.99994C12.8339 10.2217 10.2217 12.8333 7.00054 12.8333C4.22329 12.8333 1.90045 10.8937 1.31129 8.29553C1.28105 8.14618 1.31044 7.99093 1.39319 7.86298C1.47593 7.73503 1.60546 7.64454 1.75407 7.61086C1.90267 7.57717 2.05856 7.60297 2.18839 7.68274C2.31822 7.76251 2.41168 7.88991 2.44879 8.03769C2.63441 8.85072 3.03451 9.59915 3.60746 10.2051C4.18041 10.8111 4.90527 11.2524 5.70663 11.4833C6.508 11.7141 7.35657 11.726 8.16408 11.5177C8.97159 11.3094 9.70852 10.8885 10.2982 10.2988C10.8879 9.7091 11.3088 8.97216 11.5171 8.16465C11.7254 7.35715 11.7135 6.50857 11.4827 5.70721C11.2519 4.90585 10.8105 4.18098 10.2045 3.60803C9.59857 3.03509 8.85015 2.63498 8.03712 2.44936C7.88628 2.41501 7.75527 2.32215 7.67289 2.1912C7.59052 2.06025 7.56353 1.90195 7.59787 1.75111ZM3.85812 2.75328C3.91029 2.80945 3.95088 2.87535 3.97756 2.94721C4.00424 3.01908 4.0165 3.0955 4.01362 3.1721C4.01075 3.24871 3.99281 3.32399 3.96082 3.39366C3.92884 3.46333 3.88343 3.526 3.8272 3.57811C3.74087 3.65783 3.65784 3.74067 3.57812 3.82661C3.47215 3.93687 3.32712 4.00111 3.17426 4.00549C3.02139 4.00988 2.87292 3.95406 2.76081 3.85005C2.64869 3.74604 2.58191 3.60217 2.57483 3.44941C2.56775 3.29664 2.62094 3.14721 2.72295 3.03328C2.82212 2.92594 2.92557 2.8223 3.03329 2.72236C3.08946 2.67019 3.15536 2.62961 3.22722 2.60292C3.29909 2.57624 3.37551 2.56398 3.45211 2.56686C3.52872 2.56973 3.60401 2.58767 3.67367 2.61966C3.74334 2.65164 3.80602 2.69705 3.85812 2.75328ZM6.99995 3.49994C7.15466 3.49994 7.30304 3.5614 7.41243 3.6708C7.52183 3.78019 7.58329 3.92857 7.58329 4.08328V6.75844L9.16237 8.33753C9.26863 8.44755 9.32743 8.5949 9.3261 8.74784C9.32477 8.90079 9.26342 9.0471 9.15527 9.15525C9.04711 9.26341 8.9008 9.32476 8.74786 9.32609C8.59491 9.32742 8.44756 9.26862 8.33754 9.16236L6.58754 7.41236C6.47813 7.30299 6.41665 7.15464 6.41662 6.99994V4.08328C6.41662 3.92857 6.47808 3.78019 6.58748 3.6708C6.69687 3.5614 6.84525 3.49994 6.99995 3.49994ZM2.1542 4.89294C2.30202 4.93852 2.42567 5.04095 2.49798 5.17769C2.57029 5.31442 2.58533 5.47428 2.53979 5.62211C2.50519 5.73429 2.47483 5.84773 2.44879 5.96219C2.41168 6.10998 2.31822 6.23738 2.18839 6.31715C2.05856 6.39692 1.90267 6.42272 1.75407 6.38903C1.60546 6.35535 1.47593 6.26485 1.39319 6.1369C1.31044 6.00895 1.28105 5.8537 1.31129 5.70436C1.34395 5.56047 1.38187 5.41853 1.42504 5.27853C1.47062 5.13071 1.57304 5.00706 1.70978 4.93475C1.84652 4.86244 2.00638 4.8474 2.1542 4.89294Z" fill="#131313" fill-opacity="0.8"/>
</svg>
