<svg width="11" height="9" viewBox="0 0 11 9" fill="none" xmlns="http://www.w3.org/2000/svg">
<path d="M3.05556 1.8C2.88241 1.8 2.73737 1.7136 2.62045 1.5408C2.50352 1.368 2.44485 1.1544 2.44445 0.899999C2.44404 0.645599 2.5027 0.432 2.62045 0.2592C2.73819 0.0864 2.88322 0 3.05556 0H10.3889C10.562 0 10.7073 0.0864 10.8246 0.2592C10.9419 0.432 11.0004 0.645599 11 0.899999C10.9996 1.1544 10.9409 1.3683 10.824 1.5417C10.7071 1.7151 10.562 1.8012 10.3889 1.8H3.05556ZM3.05556 5.39999C2.88241 5.39999 2.73737 5.31359 2.62045 5.14079C2.50352 4.96799 2.44485 4.75439 2.44445 4.49999C2.44404 4.24559 2.5027 4.03199 2.62045 3.85919C2.73819 3.6864 2.88322 3.6 3.05556 3.6H10.3889C10.562 3.6 10.7073 3.6864 10.8246 3.85919C10.9419 4.03199 11.0004 4.24559 11 4.49999C10.9996 4.75439 10.9409 4.96829 10.824 5.14169C10.7071 5.31509 10.562 5.40119 10.3889 5.39999H3.05556ZM3.05556 8.99999C2.88241 8.99999 2.73737 8.91359 2.62045 8.74079C2.50352 8.56799 2.44485 8.35439 2.44445 8.09999C2.44404 7.84559 2.5027 7.63199 2.62045 7.45919C2.73819 7.28639 2.88322 7.19999 3.05556 7.19999H10.3889C10.562 7.19999 10.7073 7.28639 10.8246 7.45919C10.9419 7.63199 11.0004 7.84559 11 8.09999C10.9996 8.35439 10.9409 8.56829 10.824 8.74169C10.7071 8.91509 10.562 9.00119 10.3889 8.99999H3.05556ZM0.611113 1.8C0.437965 1.8 0.292928 1.7136 0.176002 1.5408C0.0590762 1.368 0.000409515 1.1544 2.10728e-06 0.899999C-0.0004053 0.645599 0.0582614 0.432 0.176002 0.2592C0.293743 0.0864 0.43878 0 0.611113 0C0.783446 0 0.928687 0.0864 1.04683 0.2592C1.16498 0.432 1.22345 0.645599 1.22222 0.899999C1.221 1.1544 1.16233 1.3683 1.04622 1.5417C0.930113 1.7151 0.785076 1.8012 0.611113 1.8ZM0.611113 5.39999C0.437965 5.39999 0.292928 5.31359 0.176002 5.14079C0.0590762 4.96799 0.000409515 4.75439 2.10728e-06 4.49999C-0.0004053 4.24559 0.0582614 4.03199 0.176002 3.85919C0.293743 3.6864 0.43878 3.6 0.611113 3.6C0.783446 3.6 0.928687 3.6864 1.04683 3.85919C1.16498 4.03199 1.22345 4.24559 1.22222 4.49999C1.221 4.75439 1.16233 4.96829 1.04622 5.14169C0.930113 5.31509 0.785076 5.40119 0.611113 5.39999ZM0.611113 8.99999C0.437965 8.99999 0.292928 8.91359 0.176002 8.74079C0.0590762 8.56799 0.000409515 8.35439 2.10728e-06 8.09999C-0.0004053 7.84559 0.0582614 7.63199 0.176002 7.45919C0.293743 7.28639 0.43878 7.19999 0.611113 7.19999C0.783446 7.19999 0.928687 7.28639 1.04683 7.45919C1.16498 7.63199 1.22345 7.84559 1.22222 8.09999C1.221 8.35439 1.16233 8.56829 1.04622 8.74169C0.930113 8.91509 0.785076 9.00119 0.611113 8.99999Z" fill="black"/>
</svg>
