<svg width="14" height="14" viewBox="0 0 14 14" fill="none" xmlns="http://www.w3.org/2000/svg">
<g clip-path="url(#clip0_3012_14002)">
<path d="M1.84363 0.270012C1.86909 0.269931 1.89455 0.26985 1.92078 0.269766C2.00598 0.269529 2.09117 0.269487 2.17637 0.269446C2.23751 0.26932 2.29864 0.269182 2.35978 0.269035C2.52583 0.268677 2.69188 0.2685 2.85793 0.268378C2.96175 0.268298 3.06557 0.268186 3.16939 0.268064C3.45723 0.267733 3.74507 0.267449 4.03291 0.267356C4.05132 0.26735 4.06972 0.267344 4.08869 0.267338C4.10713 0.267332 4.12558 0.267326 4.14459 0.26732C4.18197 0.267308 4.21934 0.267296 4.25672 0.267283C4.28453 0.267274 4.28453 0.267274 4.3129 0.267265C4.61298 0.267157 4.91306 0.26668 5.21313 0.266043C5.52173 0.265393 5.83032 0.265061 6.13891 0.265022C6.31197 0.264993 6.48502 0.264833 6.65808 0.264343C6.821 0.263891 6.98391 0.263834 7.14683 0.264074C7.20643 0.264095 7.26603 0.263977 7.32563 0.263706C8.16087 0.260129 8.58081 0.539594 9.16146 1.11472C9.22964 1.18244 9.29775 1.25023 9.36584 1.31804C9.40123 1.35327 9.40123 1.35327 9.43734 1.3892C9.56192 1.51322 9.68642 1.63732 9.81085 1.7615C9.93872 1.88906 10.0669 2.01629 10.1952 2.14346C10.2944 2.24204 10.3935 2.34087 10.4925 2.43975C10.5396 2.48676 10.5869 2.53368 10.6342 2.5805C11.3591 3.2981 11.3591 3.2981 11.381 3.76336C11.381 3.79068 11.381 3.818 11.3809 3.84615C11.381 3.89331 11.381 3.89331 11.381 3.94143C11.3809 3.97581 11.3808 4.01019 11.3807 4.04561C11.3807 4.08226 11.3807 4.11891 11.3808 4.15557C11.3808 4.25499 11.3806 4.35441 11.3804 4.45384C11.3802 4.55777 11.3802 4.6617 11.3802 4.76564C11.3801 4.96241 11.3799 5.15919 11.3796 5.35596C11.3793 5.58 11.3792 5.80404 11.379 6.02808C11.3787 6.48891 11.3782 6.94974 11.3776 7.41057C11.4025 7.41584 11.4025 7.41584 11.4278 7.42121C11.4497 7.42595 11.4715 7.43069 11.4941 7.43556C11.5157 7.4402 11.5373 7.44484 11.5596 7.44962C12.0431 7.56751 12.4511 7.89089 12.7995 8.23088C12.8258 8.25468 12.8258 8.25468 12.8527 8.27895C13.4157 8.80006 13.6979 9.62943 13.7369 10.3782C13.7642 11.2487 13.4499 12.0698 12.8596 12.7062C12.8398 12.7272 12.82 12.7483 12.7995 12.7699C12.7828 12.7885 12.766 12.807 12.7488 12.826C12.2357 13.3719 11.4582 13.6745 10.7214 13.727C10.5956 13.7308 10.47 13.7309 10.3442 13.7308C10.3065 13.7309 10.2689 13.731 10.2312 13.7311C10.1284 13.7313 10.0256 13.7313 9.92275 13.7314C9.8116 13.7314 9.70045 13.7316 9.5893 13.7318C9.3466 13.7322 9.10389 13.7323 8.86119 13.7325C8.70951 13.7325 8.55783 13.7326 8.40616 13.7328C7.98578 13.7331 7.56541 13.7334 7.14504 13.7335C7.10474 13.7335 7.10473 13.7335 7.06362 13.7335C7.03669 13.7335 7.00976 13.7335 6.98202 13.7335C6.92745 13.7335 6.87289 13.7335 6.81833 13.7335C6.79126 13.7336 6.7642 13.7336 6.73631 13.7336C6.29771 13.7337 5.8591 13.7341 5.42049 13.7348C4.96964 13.7354 4.51878 13.7358 4.06793 13.7358C3.81501 13.7358 3.56208 13.736 3.30916 13.7365C3.09383 13.7369 2.87851 13.737 2.66318 13.7368C2.55342 13.7367 2.44368 13.7367 2.33393 13.7371C2.23324 13.7375 2.13257 13.7374 2.03189 13.7371C1.97866 13.737 1.92544 13.7374 1.87222 13.7377C1.40525 13.7351 1.01184 13.6089 0.67192 13.2813C0.400809 12.9858 0.272899 12.6248 0.272482 12.2262C0.272426 12.2078 0.27237 12.1894 0.272312 12.1705C0.272158 12.109 0.272197 12.0476 0.272236 11.9861C0.272165 11.9415 0.272083 11.897 0.27199 11.8524C0.271769 11.73 0.27172 11.6076 0.2717 11.4852C0.271649 11.3532 0.271443 11.2212 0.271259 11.0891C0.270887 10.8004 0.270723 10.5117 0.270602 10.223C0.270527 10.0427 0.270411 9.86241 0.270288 9.68209C0.269954 9.18272 0.269673 8.68335 0.26958 8.18398C0.269574 8.15203 0.269568 8.12007 0.269562 8.08715C0.269556 8.05511 0.26955 8.02308 0.269544 7.99008C0.269532 7.92517 0.269519 7.86026 0.269507 7.79535C0.269501 7.76316 0.269495 7.73096 0.269489 7.69779C0.269381 7.17624 0.268904 6.6547 0.268267 6.13316C0.267618 5.59752 0.267278 5.06189 0.267246 4.52625C0.267221 4.22558 0.267064 3.92491 0.266567 3.62425C0.266145 3.36819 0.266006 3.11213 0.266232 2.85607C0.266338 2.72549 0.266314 2.59492 0.265929 2.46435C0.26558 2.34464 0.265615 2.22493 0.265946 2.10522C0.265999 2.06209 0.265916 2.01896 0.265676 1.97582C0.26304 1.4683 0.361138 1.04384 0.7218 0.669696C1.04119 0.376653 1.41857 0.269586 1.84363 0.270012ZM1.08613 1.18303C0.913827 1.40366 0.874287 1.66388 0.874121 1.93711C0.874073 1.95497 0.874025 1.97283 0.873976 1.99123C0.873849 2.05083 0.873916 2.11043 0.873982 2.17003C0.873931 2.21329 0.873868 2.25655 0.873795 2.29981C0.873627 2.41852 0.873631 2.53722 0.873663 2.65592C0.873669 2.78402 0.873518 2.91211 0.873388 3.0402C0.873161 3.2911 0.873086 3.54199 0.873071 3.79289C0.873058 3.99685 0.873001 4.20081 0.872915 4.40477C0.872674 4.98316 0.872548 5.56155 0.872568 6.13994C0.872569 6.17112 0.872571 6.2023 0.872572 6.23442C0.872573 6.26563 0.872574 6.29684 0.872575 6.329C0.872586 6.83485 0.872324 7.34069 0.871939 7.84653C0.871546 8.36604 0.871357 8.88554 0.871381 9.40505C0.87139 9.69667 0.871315 9.98829 0.871021 10.2799C0.870772 10.5282 0.870712 10.7765 0.870898 11.0248C0.870987 11.1514 0.870989 11.2781 0.870751 11.4047C0.870536 11.5207 0.870576 11.6368 0.870814 11.7528C0.870856 11.7947 0.870806 11.8366 0.870654 11.8784C0.869373 12.2544 0.881783 12.5806 1.14007 12.8743C1.39019 13.1102 1.71062 13.1297 2.03621 13.1287C2.0785 13.1287 2.0785 13.1287 2.12164 13.1288C2.21589 13.1288 2.31014 13.1287 2.4044 13.1285C2.47204 13.1285 2.53969 13.1285 2.60733 13.1285C2.75287 13.1285 2.8984 13.1285 3.04393 13.1283C3.25434 13.1281 3.46475 13.128 3.67516 13.128C4.01657 13.1279 4.35798 13.1277 4.69939 13.1275C5.03097 13.1272 5.36255 13.127 5.69412 13.1269C5.71457 13.1269 5.73502 13.1269 5.75609 13.1269C5.85869 13.1269 5.96129 13.1268 6.06388 13.1268C6.91456 13.1265 7.76524 13.126 8.61592 13.1254C8.53764 13.0467 8.45961 12.9699 8.37495 12.8981C7.725 12.3296 7.36075 11.5436 7.29893 10.6841C7.25438 9.8287 7.54506 9.00048 8.11177 8.36077C8.15206 8.31733 8.1925 8.27402 8.23311 8.23088C8.25521 8.20614 8.25521 8.20614 8.27775 8.1809C8.70733 7.71894 9.39134 7.41367 10.0105 7.32854C10.0302 7.32554 10.0499 7.32255 10.0703 7.31946C10.2266 7.29966 10.3821 7.29995 10.5394 7.30056C10.5622 7.3006 10.585 7.30065 10.6085 7.3007C10.6643 7.30082 10.7202 7.301 10.7761 7.3012C10.7767 6.84889 10.7772 6.39658 10.7775 5.94428C10.7776 5.73428 10.7778 5.52428 10.7781 5.31428C10.7784 5.13131 10.7786 4.94834 10.7786 4.76537C10.7787 4.66843 10.7788 4.57149 10.779 4.47455C10.7792 4.36651 10.7792 4.25847 10.7792 4.15042C10.7793 4.11805 10.7794 4.08568 10.7795 4.05232C10.7794 4.00844 10.7794 4.00844 10.7794 3.96366C10.7794 3.93808 10.7794 3.9125 10.7794 3.88614C10.7825 3.82891 10.7825 3.82891 10.7487 3.8012C10.6992 3.79825 10.6495 3.7972 10.5998 3.79688C10.5679 3.7966 10.536 3.79632 10.5032 3.79603C10.451 3.79573 10.451 3.79573 10.3977 3.79543C10.3432 3.79486 10.2887 3.79429 10.2342 3.79369C10.0996 3.79223 9.96491 3.79103 9.83025 3.79022C9.75492 3.78976 9.6796 3.78908 9.60427 3.78817C9.53339 3.78733 9.46251 3.7868 9.39162 3.78661C8.97814 3.78089 8.59358 3.66087 8.28865 3.37085C8.06146 3.11788 7.90415 2.79676 7.89937 2.45486C7.89882 2.42038 7.89828 2.3859 7.89772 2.35038C7.89725 2.31289 7.89679 2.27539 7.89633 2.2379C7.89577 2.19944 7.89519 2.16097 7.89461 2.1225C7.8931 2.02145 7.89175 1.9204 7.89043 1.81935C7.88905 1.71615 7.88753 1.61296 7.88602 1.50977C7.88309 1.30743 7.88031 1.1051 7.87764 0.902759C7.73049 0.878127 7.58902 0.871476 7.43998 0.871759C7.4037 0.871666 7.4037 0.871666 7.3667 0.871571C7.286 0.871398 7.20529 0.87142 7.12459 0.871443C7.06659 0.871361 7.00859 0.871268 6.95059 0.871165C6.79325 0.870923 6.63591 0.870859 6.47856 0.870841C6.38019 0.870822 6.28181 0.870764 6.18344 0.870691C5.84003 0.870438 5.49662 0.870326 5.15321 0.870348C4.83345 0.870364 4.51369 0.870076 4.19393 0.869644C3.91911 0.869286 3.6443 0.86914 3.36949 0.869157C3.20548 0.869164 3.04147 0.869087 2.87747 0.868797C2.72314 0.868532 2.56882 0.868531 2.4145 0.868729C2.35801 0.868758 2.30152 0.868694 2.24503 0.868528C1.61003 0.857428 1.61003 0.857428 1.08613 1.18303ZM8.4792 1.34026C8.47716 1.49931 8.47568 1.65835 8.4747 1.81741C8.47428 1.87143 8.47373 1.92545 8.47301 1.97947C8.47201 2.05746 8.47155 2.13544 8.47119 2.21344C8.47077 2.23729 8.47034 2.26114 8.46991 2.28572C8.46984 2.53458 8.53657 2.73188 8.69549 2.92406C8.89469 3.12214 9.1344 3.20588 9.4101 3.20583C9.43363 3.20555 9.45717 3.20527 9.48141 3.20497C9.50603 3.2049 9.53064 3.20482 9.556 3.20474C9.634 3.20444 9.71199 3.20375 9.78999 3.20305C9.84313 3.20278 9.89627 3.20253 9.94941 3.2023C10.0791 3.2017 10.2089 3.20076 10.3386 3.19963C10.2319 3.07198 10.1211 2.95079 10.0032 2.83338C9.98696 2.81709 9.97071 2.80079 9.95397 2.784C9.90091 2.73082 9.84775 2.67774 9.79458 2.62467C9.75748 2.58755 9.72039 2.55043 9.6833 2.5133C9.60591 2.43587 9.52848 2.3585 9.45101 2.28115C9.35148 2.18179 9.25208 2.0823 9.15272 1.98277C9.07632 1.90628 8.99986 1.82985 8.92338 1.75344C8.88667 1.71675 8.84999 1.68004 8.81332 1.64331C8.76233 1.59225 8.71126 1.54128 8.66016 1.49034C8.64492 1.47504 8.62968 1.45974 8.61398 1.44398C8.55624 1.37257 8.55624 1.37257 8.4792 1.34026ZM8.75264 8.55901C8.7178 8.59057 8.7178 8.59057 8.68225 8.62278C8.2673 9.01612 7.93382 9.61225 7.90058 10.1948C7.88605 10.7235 7.88605 10.7235 7.98701 11.2387C7.99632 11.2678 8.00562 11.2969 8.01521 11.3269C8.25972 12.0192 8.7555 12.554 9.40761 12.8832C10.0333 13.1817 10.7572 13.1902 11.405 12.9614C12.0944 12.6804 12.6361 12.1676 12.9337 11.482C13.1834 10.8202 13.1836 10.0779 12.8927 9.42942C12.5732 8.78611 12.0584 8.26968 11.3746 8.02452C10.4677 7.72633 9.45883 7.90397 8.75264 8.55901Z" fill="black"/>
<path d="M5.28143 6.121C5.29913 6.1209 5.31684 6.1208 5.33508 6.12069C5.39467 6.12039 5.45427 6.12029 5.51386 6.12018C5.55648 6.12001 5.5991 6.11983 5.64172 6.11964C5.75771 6.11916 5.87369 6.11887 5.98968 6.11865C6.06212 6.11851 6.13455 6.11834 6.20699 6.11817C6.43353 6.11765 6.66008 6.11726 6.88662 6.11703C7.14829 6.11676 7.40996 6.11605 7.67163 6.11494C7.87378 6.11412 8.07592 6.11371 8.27807 6.11362C8.39886 6.11356 8.51964 6.11331 8.64042 6.11262C8.75406 6.11199 8.86768 6.11187 8.98132 6.11215C9.02302 6.11217 9.06472 6.11199 9.10641 6.11162C9.16337 6.11113 9.22029 6.11133 9.27725 6.11169C9.30911 6.11162 9.34098 6.11156 9.37381 6.11149C9.47629 6.12789 9.52151 6.16266 9.59509 6.2344C9.64591 6.33604 9.63827 6.45186 9.62244 6.56252C9.55335 6.65402 9.51199 6.69049 9.40369 6.72659C9.34718 6.72932 9.2906 6.7304 9.23403 6.73061C9.19849 6.73081 9.16295 6.731 9.12634 6.7312C9.08686 6.73128 9.04739 6.73135 9.00792 6.73143C8.96642 6.7316 8.92491 6.73178 8.88341 6.73197C8.74705 6.73255 8.61069 6.73283 8.47432 6.7331C8.42737 6.73321 8.38042 6.73332 8.33348 6.73344C8.11293 6.73396 7.89239 6.73435 7.67184 6.73458C7.41726 6.73484 7.16268 6.73556 6.9081 6.73667C6.71131 6.73749 6.51453 6.7379 6.31774 6.73799C6.20021 6.73805 6.08269 6.7383 5.96516 6.73899C5.85458 6.73962 5.74401 6.73974 5.63342 6.73946C5.59288 6.73944 5.55234 6.73962 5.5118 6.73999C5.45636 6.74048 5.40092 6.74022 5.34549 6.73992C5.29899 6.74002 5.29899 6.74002 5.25156 6.74012C5.14455 6.72331 5.08559 6.68418 5.00134 6.61721C4.93387 6.51599 4.92804 6.43387 4.94666 6.31643C5.04086 6.14373 5.09121 6.1217 5.28143 6.121Z" fill="black"/>
<path d="M5.28143 4.371C5.29913 4.3709 5.31684 4.3708 5.33508 4.37069C5.39467 4.37039 5.45427 4.37029 5.51386 4.37018C5.55648 4.37001 5.5991 4.36983 5.64172 4.36964C5.75771 4.36916 5.87369 4.36887 5.98968 4.36865C6.06212 4.36851 6.13455 4.36834 6.20699 4.36817C6.43353 4.36765 6.66008 4.36726 6.88662 4.36703C7.14829 4.36676 7.40996 4.36605 7.67163 4.36494C7.87378 4.36412 8.07592 4.36371 8.27807 4.36362C8.39886 4.36356 8.51964 4.36331 8.64042 4.36262C8.75406 4.36199 8.86768 4.36187 8.98132 4.36215C9.02302 4.36217 9.06472 4.36199 9.10641 4.36162C9.16337 4.36113 9.22029 4.36133 9.27725 4.36169C9.30911 4.36162 9.34098 4.36156 9.37381 4.36149C9.47629 4.37789 9.52151 4.41266 9.59509 4.4844C9.64591 4.58604 9.63827 4.70186 9.62244 4.81252C9.55335 4.90402 9.51199 4.94049 9.40369 4.97659C9.34718 4.97932 9.2906 4.9804 9.23403 4.98061C9.19849 4.98081 9.16295 4.981 9.12634 4.9812C9.08686 4.98128 9.04739 4.98135 9.00792 4.98143C8.96642 4.9816 8.92491 4.98178 8.88341 4.98197C8.74705 4.98255 8.61069 4.98283 8.47432 4.9831C8.42737 4.98321 8.38042 4.98332 8.33348 4.98344C8.11293 4.98396 7.89239 4.98435 7.67184 4.98458C7.41726 4.98484 7.16268 4.98556 6.9081 4.98667C6.71131 4.98749 6.51453 4.9879 6.31774 4.98799C6.20021 4.98805 6.08269 4.9883 5.96516 4.98899C5.85458 4.98962 5.74401 4.98974 5.63342 4.98946C5.59288 4.98944 5.55234 4.98962 5.5118 4.98999C5.45636 4.99048 5.40092 4.99022 5.34549 4.98992C5.29899 4.99002 5.29899 4.99002 5.25156 4.99012C5.14455 4.97331 5.08559 4.93418 5.00134 4.86721C4.93387 4.76599 4.92804 4.68387 4.94666 4.56643C5.04086 4.39373 5.09121 4.3717 5.28143 4.371Z" fill="black"/>
<path d="M11.811 9.37799C11.9039 9.42529 11.9593 9.46188 12.0144 9.5506C12.0358 9.65299 12.0317 9.71405 12.0024 9.81549C11.8503 10.0281 11.6404 10.2098 11.4562 10.3946C11.4394 10.4116 11.4225 10.4285 11.4051 10.4459C11.3162 10.5352 11.2273 10.6245 11.1382 10.7136C11.0464 10.8056 10.9549 10.8978 10.8634 10.99C10.7927 11.0612 10.7219 11.1322 10.651 11.2031C10.6172 11.237 10.5834 11.271 10.5497 11.3051C10.5027 11.3526 10.4554 11.3998 10.408 11.447C10.3873 11.4681 10.3873 11.4681 10.3662 11.4896C10.259 11.5956 10.1767 11.6464 10.0251 11.6492C9.77407 11.5769 9.57036 11.2987 9.38832 11.1166C9.33952 11.0679 9.2905 11.0193 9.24147 10.9708C9.21023 10.9397 9.17901 10.9085 9.1478 10.8773C9.13321 10.8629 9.11863 10.8485 9.10361 10.8337C8.99292 10.7223 8.94458 10.6572 8.92969 10.5008C8.93194 10.4145 8.94072 10.3884 8.98779 10.3111C9.07219 10.2314 9.12203 10.2031 9.2373 10.1881C9.40031 10.2076 9.51087 10.3249 9.62247 10.438C9.64661 10.4623 9.67076 10.4866 9.69563 10.5117C9.72034 10.5369 9.74505 10.562 9.77051 10.588C9.79585 10.6135 9.82119 10.6391 9.84731 10.6655C9.90956 10.7284 9.97168 10.7914 10.0337 10.8546C10.1367 10.8118 10.2013 10.7479 10.2793 10.669C10.2924 10.6558 10.3056 10.6425 10.3192 10.6289C10.3477 10.6002 10.3761 10.5714 10.4045 10.5426C10.4494 10.4969 10.4945 10.4515 10.5397 10.406C10.6355 10.3096 10.7311 10.213 10.8267 10.1163C10.9374 10.0042 11.0483 9.89226 11.1594 9.78052C11.2038 9.73577 11.248 9.69085 11.2922 9.64592C11.3195 9.61845 11.3468 9.59098 11.3741 9.56353C11.4096 9.52752 11.4096 9.52752 11.4459 9.49079C11.5646 9.38362 11.6504 9.36138 11.811 9.37799Z" fill="black"/>
<path d="M4.20825 6.12472C4.30579 6.18444 4.35798 6.23075 4.38556 6.34241C4.39842 6.45931 4.39154 6.53598 4.32074 6.63262C4.29722 6.65708 4.27371 6.68154 4.24948 6.70674C4.23632 6.72057 4.22315 6.7344 4.20959 6.74865C4.16396 6.79628 4.11779 6.84334 4.07153 6.89035C4.04563 6.9169 4.04563 6.9169 4.0192 6.94398C3.90383 7.06213 3.7876 7.17936 3.67083 7.29612C3.60949 7.35752 3.54838 7.41913 3.48727 7.48075C3.44798 7.52012 3.40867 7.55948 3.36935 7.59883C3.35127 7.61712 3.33318 7.6354 3.31454 7.65424C3.08258 7.88506 3.08258 7.88506 2.91455 7.89181C2.81027 7.88616 2.76132 7.8644 2.68501 7.79365C2.66618 7.7763 2.64734 7.75895 2.62793 7.74108C2.59808 7.71249 2.59808 7.71249 2.56763 7.68332C2.53654 7.65356 2.53654 7.65356 2.50482 7.62321C2.43974 7.56005 2.37543 7.49619 2.31128 7.4321C2.28925 7.4104 2.26722 7.38871 2.24452 7.36635C2.22348 7.34536 2.20244 7.32437 2.18076 7.30275C2.16181 7.28392 2.14287 7.26509 2.12336 7.24569C2.06133 7.17506 2.02372 7.11635 2.01562 7.02205C2.02566 6.90145 2.03822 6.84747 2.11816 6.75192C2.2269 6.69063 2.30894 6.66643 2.43091 6.69894C2.55718 6.77234 2.65511 6.86149 2.75562 6.96554C2.76922 6.9794 2.78283 6.99325 2.79684 7.00752C2.82994 7.04126 2.86287 7.07516 2.89575 7.1091C3.0245 7.00172 3.14589 6.88981 3.2635 6.7704C3.27936 6.75444 3.29522 6.73848 3.31155 6.72204C3.36158 6.67168 3.41151 6.62124 3.46143 6.57077C3.52753 6.50393 3.59373 6.43719 3.65999 6.3705C3.67497 6.35529 3.68996 6.34008 3.70539 6.3244C3.87275 6.15598 3.96781 6.08854 4.20825 6.12472Z" fill="black"/>
<path d="M4.17993 3.19863C4.33032 3.28066 4.33032 3.28066 4.37134 3.36269C4.38074 3.42016 4.38074 3.42016 4.38501 3.48916C4.38797 3.52268 4.38797 3.52268 4.39099 3.55687C4.33792 3.77089 4.08354 3.95565 3.93181 4.10759C3.90867 4.13082 3.88553 4.15406 3.86169 4.17799C3.81312 4.22669 3.76452 4.27536 3.71588 4.32399C3.64139 4.39854 3.56713 4.47331 3.49287 4.54808C3.44551 4.59552 3.39814 4.64295 3.35075 4.69036C3.32859 4.71272 3.30643 4.73507 3.2836 4.75811C3.26287 4.77875 3.24215 4.79939 3.2208 4.82065C3.20267 4.83882 3.18455 4.85698 3.16588 4.87569C3.07988 4.95059 3.00591 4.98681 2.89136 4.9811C2.72855 4.95727 2.63687 4.8577 2.52526 4.74366C2.47933 4.69718 2.43227 4.65202 2.38507 4.60683C2.35043 4.57326 2.31582 4.53965 2.28125 4.506C2.26475 4.4901 2.24824 4.47419 2.23124 4.45781C2.11667 4.34401 2.03185 4.23849 2.00781 4.07363C2.02331 3.96738 2.06154 3.91017 2.12915 3.82753C2.22848 3.76633 2.30223 3.76116 2.41605 3.77637C2.5575 3.82551 2.65556 3.94111 2.75806 4.04628C2.77378 4.06169 2.7895 4.07709 2.80569 4.09296C2.83585 4.12252 2.86541 4.15266 2.89478 4.183C2.97783 4.14588 3.03476 4.10432 3.09853 4.03971C3.11641 4.02174 3.13429 4.00376 3.15272 3.98524C3.17172 3.96587 3.19072 3.94651 3.2103 3.92655C3.23004 3.90666 3.24978 3.88678 3.27013 3.86629C3.33313 3.8028 3.39595 3.73913 3.45874 3.67543C3.52175 3.61167 3.58481 3.54794 3.64794 3.48429C3.68721 3.44468 3.72641 3.405 3.76553 3.36524C3.79209 3.33841 3.79209 3.33841 3.81919 3.31104C3.83477 3.29524 3.85035 3.27943 3.8664 3.26315C3.95693 3.17921 4.06287 3.18234 4.17993 3.19863Z" fill="black"/>
<path d="M4.23463 9.05001C4.32395 9.10651 4.36146 9.14533 4.3862 9.24889C4.39427 9.34782 4.39246 9.42834 4.33648 9.51274C4.32126 9.52906 4.30605 9.54537 4.29037 9.56218C4.27298 9.58097 4.25559 9.59976 4.23768 9.61912C4.21863 9.63885 4.19957 9.65859 4.17995 9.67892C4.15069 9.70924 4.15069 9.70924 4.12084 9.74018C4.05567 9.8068 3.98989 9.87276 3.92392 9.93857C3.90004 9.96248 3.87617 9.98638 3.85157 10.011C3.80148 10.0611 3.75136 10.1112 3.70121 10.1612C3.64979 10.2125 3.59841 10.2639 3.54711 10.3153C3.47283 10.3898 3.39847 10.4641 3.32407 10.5384C3.30102 10.5615 3.27798 10.5846 3.25424 10.6084C3.22233 10.6402 3.22233 10.6402 3.18977 10.6726C3.16167 10.7007 3.16167 10.7007 3.13301 10.7293C3.05122 10.805 2.9843 10.8054 2.87471 10.8117C2.72606 10.7837 2.61261 10.6615 2.50899 10.5582C2.48386 10.5331 2.45872 10.5081 2.43283 10.4822C2.41361 10.4628 2.41361 10.4628 2.39399 10.4431C2.35466 10.4034 2.31504 10.3641 2.27539 10.3248C2.2504 10.2997 2.22541 10.2747 2.19966 10.2489C2.17694 10.2261 2.15421 10.2033 2.13079 10.1798C2.06449 10.1052 2.02263 10.0477 2.01562 9.94733C2.02602 9.83827 2.04061 9.77127 2.10011 9.67721C2.20188 9.61283 2.26842 9.60121 2.38754 9.60757C2.51529 9.63809 2.58848 9.72232 2.67604 9.81563C2.71702 9.85612 2.75803 9.89657 2.79909 9.93697C2.83106 9.96937 2.86299 10.0018 2.89479 10.0344C3.02833 9.92341 3.15297 9.80667 3.27451 9.68276C3.30952 9.6474 3.34453 9.61205 3.37955 9.5767C3.43397 9.5216 3.48834 9.46647 3.54264 9.41126C3.59555 9.35752 3.64864 9.30394 3.70175 9.25039C3.71793 9.23384 3.73411 9.21729 3.75078 9.20024C3.77366 9.17723 3.77366 9.17723 3.79699 9.15375C3.81026 9.14028 3.82353 9.12681 3.8372 9.11293C3.96365 9.00574 4.0799 9.00871 4.23463 9.05001Z" fill="black"/>
<path d="M5.40283 7.26502C5.43893 7.26481 5.43893 7.26481 5.47576 7.2646C5.55529 7.26422 5.63482 7.26425 5.71435 7.26431C5.76965 7.2642 5.82496 7.26408 5.88026 7.26395C5.99618 7.26375 6.1121 7.26376 6.22801 7.2639C6.37654 7.26406 6.52506 7.2636 6.67359 7.26296C6.7878 7.26256 6.90202 7.26253 7.01623 7.26262C7.07099 7.26261 7.12575 7.26246 7.18051 7.26219C7.2571 7.26185 7.33366 7.26204 7.41024 7.26235C7.43285 7.26214 7.45545 7.26193 7.47874 7.26172C7.63231 7.26312 7.71567 7.29763 7.83798 7.39238C7.89619 7.46986 7.88372 7.54963 7.88113 7.64306C7.86732 7.73613 7.83054 7.78409 7.76182 7.84675C7.66986 7.89273 7.56582 7.87888 7.46464 7.87937C7.43951 7.87959 7.41439 7.87982 7.3885 7.88005C7.30512 7.88073 7.22174 7.88118 7.13836 7.88157C7.0957 7.88179 7.0957 7.88179 7.05219 7.88201C6.90168 7.88274 6.75118 7.88327 6.60068 7.88367C6.4451 7.88412 6.28953 7.88535 6.13395 7.88674C6.01443 7.88766 5.89492 7.88798 5.7754 7.88813C5.71804 7.88832 5.66069 7.88873 5.60334 7.88939C5.52307 7.89025 5.44285 7.89025 5.36259 7.89005C5.33887 7.8905 5.31516 7.89095 5.29073 7.89141C5.17031 7.89016 5.12426 7.88591 5.02701 7.80816C4.95041 7.70822 4.936 7.64702 4.93762 7.51959C4.94998 7.43139 4.99136 7.38713 5.05479 7.32722C5.16065 7.25318 5.27887 7.26465 5.40283 7.26502Z" fill="black"/>
<path d="M5.32339 3.19299C5.34233 3.19277 5.36128 3.19254 5.3808 3.19231C5.44363 3.19163 5.50646 3.19118 5.56929 3.19079C5.59076 3.19064 5.61222 3.1905 5.63434 3.19035C5.748 3.18962 5.86165 3.18909 5.97531 3.18869C6.09258 3.18824 6.20983 3.18701 6.32709 3.18562C6.41735 3.1847 6.50761 3.18438 6.59789 3.18423C6.6411 3.18405 6.68432 3.18363 6.72753 3.18297C6.78814 3.18211 6.8487 3.18211 6.90932 3.18231C6.94377 3.18209 6.97821 3.18187 7.0137 3.18164C7.13842 3.20367 7.18269 3.2465 7.27187 3.33498C7.31601 3.42327 7.3155 3.51299 7.29921 3.60842C7.25174 3.69114 7.19433 3.75657 7.10781 3.79983C7.04642 3.80305 6.98494 3.80447 6.92348 3.8051C6.90453 3.80533 6.88558 3.80555 6.86606 3.80578C6.80323 3.80646 6.7404 3.80691 6.67757 3.8073C6.6561 3.80745 6.63464 3.8076 6.61252 3.80775C6.49887 3.80848 6.38521 3.80901 6.27155 3.8094C6.15428 3.80986 6.03704 3.81108 5.91978 3.81247C5.82951 3.8134 5.73925 3.81371 5.64898 3.81386C5.60576 3.81405 5.56255 3.81446 5.51934 3.81512C5.45872 3.81599 5.39816 3.81599 5.33754 3.81578C5.28587 3.81611 5.28587 3.81611 5.23316 3.81645C5.10844 3.79442 5.06417 3.75159 4.97499 3.66311C4.93085 3.57483 4.93136 3.4851 4.94765 3.38967C5.04422 3.2214 5.13835 3.19489 5.32339 3.19299Z" fill="black"/>
<path d="M5.3042 9.01562C5.33048 9.01527 5.35677 9.01492 5.38385 9.01456C5.41208 9.0145 5.44031 9.01444 5.46939 9.01437C5.49859 9.01419 5.52778 9.01401 5.55786 9.01382C5.6196 9.01355 5.68133 9.01342 5.74307 9.01343C5.83735 9.01331 5.9316 9.01231 6.02588 9.01128C6.08591 9.01112 6.14594 9.01101 6.20597 9.01096C6.23408 9.01056 6.2622 9.01017 6.29117 9.00977C6.45524 9.01081 6.55039 9.0234 6.67529 9.13294C6.73013 9.21138 6.73727 9.2693 6.72827 9.36365C6.72683 9.38392 6.72538 9.40418 6.72389 9.42506C6.69047 9.52466 6.65068 9.56155 6.56592 9.62512C6.45754 9.64587 6.35044 9.64428 6.24036 9.64328C6.20871 9.64341 6.17706 9.64354 6.14445 9.64368C6.07762 9.64377 6.01078 9.64352 5.94394 9.64295C5.84167 9.64222 5.73947 9.64294 5.63719 9.64381C5.57222 9.64372 5.50724 9.64355 5.44226 9.64328C5.4117 9.64356 5.38113 9.64383 5.34964 9.64412C5.1375 9.64092 5.1375 9.64092 5.0297 9.55905C4.94984 9.44558 4.93335 9.3526 4.95264 9.21497C5.04145 9.06906 5.13608 9.01714 5.3042 9.01562Z" fill="black"/>
<path d="M5.27083 10.1938C5.31204 10.1933 5.31204 10.1933 5.35408 10.1927C5.38388 10.1925 5.41367 10.1923 5.44436 10.1921C5.47491 10.1919 5.50547 10.1917 5.53694 10.1915C5.60169 10.1911 5.66645 10.1908 5.7312 10.1906C5.83023 10.1901 5.92923 10.1889 6.02825 10.1877C6.09111 10.1874 6.15397 10.1872 6.21682 10.187C6.24645 10.1865 6.27608 10.186 6.3066 10.1855C6.51274 10.1861 6.51274 10.1861 6.6192 10.2509C6.69311 10.334 6.72051 10.3852 6.73497 10.496C6.72194 10.6046 6.68287 10.6606 6.61534 10.7455C6.52679 10.8045 6.501 10.8073 6.39858 10.8086C6.3712 10.809 6.34382 10.8095 6.3156 10.8099C6.27125 10.8101 6.27125 10.8101 6.22601 10.8103C6.18034 10.8107 6.18034 10.8107 6.13374 10.8111C6.06927 10.8115 6.0048 10.8117 5.94032 10.8118C5.84183 10.8122 5.74338 10.8135 5.6449 10.8149C5.58226 10.8151 5.51961 10.8153 5.45697 10.8155C5.41287 10.8163 5.41287 10.8163 5.36788 10.8171C5.13938 10.8157 5.13938 10.8157 5.03857 10.7343C4.95123 10.6374 4.93658 10.5792 4.93754 10.4476C4.95491 10.3459 5.01135 10.297 5.08409 10.226C5.15111 10.1925 5.19588 10.1946 5.27083 10.1938Z" fill="black"/>
</g>
<defs>
<clipPath id="clip0_3012_14002">
<rect width="14" height="14" fill="white"/>
</clipPath>
</defs>
</svg>
